# xmcd
#
# Track frame offsets:
#	150
#	19505
#	32135
#	51198
#	73741
#	84914
#	99165
#	116262
#	141445
#	169612
#	181936
#	205317
#
# Disc length: 3034 seconds
#
# Revision: 0
# Processed by: cddbd v1.5.2PL0 Copyright (c) Steve Scherf et al.
# Submitted via: EasyCDDAExtractor 9.0.0.1
#
DISCID=970bd80c
DTITLE=Motörhead - Superdome Sydney 03-12-05
DYEAR=2005
DGENRE=Hard Rock
TTITLE0=Dr Rock
TTITLE1=Stay Clean
TTITLE2=Killers
TTITLE3=Metropolis
TTITLE4=Over The Top
TTITLE5=No Class
TTITLE6=In The Name Of Tradegy
TTITLE7=I Got Mine
TTITLE8=Sacrifice
TTITLE9=Going To Brazil
TTITLE10=Killed By Death
TTITLE11=Ace Of Spades
EXTD=
EXTT0=
EXTT1=
EXTT2=
EXTT3=
EXTT4=
EXTT5=
EXTT6=
EXTT7=
EXTT8=
EXTT9=
EXTT10=
EXTT11=
PLAYORDER=
